#!OML:ASF I:\Actors\actors\Patient Classification 1\Patient 1\Session 1\Subject1.ASF
:FULLY-SPECIFIED
:DEGREES
872
root -0.704916 17.5137 7.73063 7.56253 -0.548684 -6.91683
lowerback 2.15819 1.10231 6.69556
upperback -13.0344 2.26653 0.474365
thorax -15.4685 0.286524 -3.53513
lowerneck -12.5295 0.514894 0.294543
upperneck 35.0513 -2.60109 9.18533
head 14.2481 0.175721 3.30881
rclavicle -8.74653e-015 -2.3059e-014
rhumerus -43.3674 13.9719 -104.265
rradius 26.1221
rwrist 7.24562
rhand 18.2913 -33.765
rfingers 7.12502
rthumb 42.9401 301.968
lclavicle -8.74653e-015 -2.3059e-014
lhumerus -43.3954 -10.9498 99.8545
lradius 23.2282
lwrist 7.8975
lhand -17.6527 -0.710384
lfingers 7.12502
lthumb 8.60553 29.0942
rfemur -0.243565 23.9817 26.2481
rtibia 0.531444
rfoot -12.0817 -23.316
rtoes 1.83299
lfemur 9.7663 -47.1656 -18.1492
ltibia -4.90544
lfoot -26.2957 55.2262
ltoes 15.5332
873
root -0.702956 17.5133 7.73573 7.49633 -0.65908 -6.96397
lowerback 2.1261 1.15123 6.66726
upperback -12.9774 2.32783 0.501874
thorax -15.3692 0.326621 -3.49562
lowerneck -12.5255 0.409266 0.218011
upperneck 35.0393 -2.71771 9.12475
head 14.2482 0.105449 3.27851
rclavicle -1.07344e-014 8.74653e-015
rhumerus -43.1962 13.517 -103.901
rradius 25.9056
rwrist 7.66596
rhand 18.158 -33.7142
rfingers 7.12502
rthumb 42.8154 301.975
lclavicle -1.07344e-014 8.74653e-015
lhumerus -43.1514 -10.0677 99.1621
lradius 23.2859
lwrist 8.01564
lhand -18.2464 -1.15515
lfingers 7.12502
lthumb 8.03251 28.6722
rfemur -0.158587 23.9735 26.3297
rtibia 0.54837
rfoot -12.0403 -23.2188
rtoes 1.78479
lfemur 9.89509 -47.0551 -18.2162
ltibia -4.86398
lfoot -26.3075 55.2125
ltoes 15.4248
874
root -0.702084 17.5124 7.73798 7.47776 -0.734933 -6.96801
lowerback 2.11466 1.19742 6.60523
upperback -12.962 2.38168 0.492796
thorax -15.3358 0.360746 -3.47856
lowerneck -12.5647 0.311896 0.125537
upperneck 35.1014 -2.85047 9.13571
head 14.2958 0.0384823 3.28331
rclavicle -9.34288e-015 3.18055e-015
rhumerus -43.0632 12.9131 -103.502
rradius 25.6926
rwrist 8.17194
rhand 18.1896 -33.7877
rfingers 7.12502
rthumb 42.845 301.912
lclavicle -9.34288e-015 3.18055e-015
lhumerus -42.9644 -9.11278 98.4041
lradius 23.264
lwrist 7.75423
lhand -18.4007 -1.47519
lfingers 7.12502
lthumb 7.88364 28.3578
rfemur -0.141801 23.9966 26.345
rtibia 0.574983
rfoot -12.003 -23.1886
rtoes 1.72964
lfemur 9.91435 -46.9645 -18.2403
ltibia -4.82376
lfoot -26.2536 55.1741
ltoes 15.2869
875
root -0.700806 17.5121 7.74036 7.45077 -0.799435 -6.96053
lowerback 2.12742 1.25327 6.55457
upperback -12.9632 2.44996 0.458282
thorax -15.3363 0.396456 -3.49945
lowerneck -12.5879 0.2081 0.0648413
upperneck 35.1829 -3.0077 9.15972
head 14.3512 -0.0327237 3.28497
rclavicle -6.75868e-015 -2.26615e-014
rhumerus -42.9275 12.2045 -103.076
rradius 25.4219
rwrist 8.69784
rhand 18.2363 -33.8399
rfingers 7.12502
rthumb 42.8887 301.875
lclavicle -6.75868e-015 -2.26615e-014
lhumerus -42.2573 -8.34537 97.731
lradius 21.9663
lwrist 7.55246
lhand -18.6088 -2.25173
lfingers 7.12502
lthumb 7.68274 27.5887
rfemur -0.103311 24.0412 26.3536
rtibia 0.582989
rfoot -11.9882 -23.1894
rtoes 1.68829
lfemur 9.93126 -46.8455 -18.2761
ltibia -4.7703
lfoot -26.3049 55.0713
ltoes 15.3242
876
root -0.698579 17.5116 7.74224 7.44079 -0.878675 -6.96476
lowerback 2.12383 1.29357 6.51601
upperback -12.9589 2.50039 0.457392
thorax -15.3229 0.425707 -3.48607
lowerneck -12.6407 0.122837 0.0411523
upperneck 35.2796 -3.10517 9.05892
head 14.4125 -0.0889506 3.23781
rclavicle 5.36719e-015 -5.56597e-015
rhumerus -42.7664 11.7117 -102.714
rradius 25.0591
rwrist 9.18368
rhand 18.2216 -33.9193
rfingers 7.12502
rthumb 42.875 301.791
lclavicle 5.36719e-015 -5.56597e-015
lhumerus -42.5594 -7.23326 96.8665
lradius 22.784
lwrist 6.91463
lhand -18.2598 -1.66673
lfingers 7.12502
lthumb 8.01955 28.1611
rfemur -0.0995167 24.0568 26.351
rtibia 0.605166
rfoot -12.0017 -23.1312
rtoes 1.6922
lfemur 9.90342 -46.6229 -18.2418
ltibia -4.76584
lfoot -26.3969 54.9056
ltoes 15.6048
877
root -0.696734 17.5109 7.74283 7.46772 -0.956625 -7.01304
lowerback 2.11908 1.31848 6.51843
upperback -12.9666 2.53703 0.477976
thorax -15.3263 0.444257 -3.46947
lowerneck -12.6914 0.0572205 0.0357568
upperneck 35.3465 -3.15152 8.89257
head 14.4538 -0.130267 3.16576
rclavicle -4.37326e-015 -5.56597e-015
rhumerus -42.5963 11.2915 -102.372
rradius 24.6698
rwrist 9.8067
rhand 18.2463 -34.0424
rfingers 7.12502
rthumb 42.898 301.676
lclavicle -4.37326e-015 -5.56597e-015
lhumerus -42.2695 -6.28046 96.0983
lradius 22.417
lwrist 6.42092
lhand -18.1879 -1.38363
lfingers 7.12502
lthumb 8.08894 28.4416
rfemur -0.161226 24.0421 26.3718
rtibia 0.644317
rfoot -11.9778 -23.0439
rtoes 1.62013
lfemur 9.78629 -46.3257 -18.0594
ltibia -4.80658
lfoot -26.3307 54.7013
ltoes 15.8069
878
root -0.695161 17.5098 7.74222 7.51796 -0.984713 -7.07864
lowerback 2.11316 1.33782 6.56183
upperback -12.978 2.56801 0.478177
thorax -15.3327 0.453186 -3.49768
lowerneck -12.7597 -0.0160676 -0.0309142
upperneck 35.3787 -3.23062 8.84053
head 14.4889 -0.179085 3.14589
rclavicle -3.67752e-014 2.18663e-014
rhumerus -42.4085 10.7397 -101.981
rradius 24.3042
rwrist 10.5986
rhand 18.248 -34.0385
rfingers 7.12502
rthumb 42.8996 301.68
lclavicle -3.67752e-014 2.18663e-014
lhumerus -41.2414 -4.7593 94.9452
lradius 20.6354
lwrist 5.11858
lhand -18.2607 -1.85908
lfingers 7.12502
lthumb 8.01875 27.9688
rfemur -0.254037 24.0155 26.407
rtibia 0.678083
rfoot -11.9576 -22.9994
rtoes 1.51276
lfemur 9.61383 -46.0823 -17.8238
ltibia -4.82286
lfoot -25.8972 54.5653
ltoes 15.4463
879
root -0.692569 17.5091 7.742 7.54879 -0.989766 -7.09592
lowerback 2.10245 1.34616 6.57797
upperback -12.9631 2.57751 0.463454
thorax -15.3049 0.455875 -3.52387
lowerneck -12.8579 -0.0686105 -0.147128
upperneck 35.3773 -3.30741 8.91418
head 14.5194 -0.216618 3.18674
rclavicle -6.75868e-015 -1.39149e-014
rhumerus -42.2471 10.2689 -101.642
rradius 24.0258
rwrist 11.2566
rhand 18.1647 -34
rfingers 7.12502
rthumb 42.8217 301.691
lclavicle -6.75868e-015 -1.39149e-014
lhumerus -41.6014 -3.92155 94.1818
lradius 21.5611
lwrist 4.41149
lhand -17.9578 -1.01481
lfingers 7.12502
lthumb 8.3111 28.8017
rfemur -0.308465 23.9877 26.3975
rtibia 0.693778
rfoot -11.9845 -22.9691
rtoes 1.53806
lfemur 9.57016 -46.0641 -17.773
ltibia -4.83853
lfoot -25.8055 54.5701
ltoes 15.3571
880
root -0.689886 17.5092 7.74365 7.54024 -1.0063 -7.07016
lowerback 2.11362 1.34177 6.54274
upperback -12.9424 2.56679 0.456532
thorax -15.2873 0.455543 -3.51066
lowerneck -12.8972 -0.074947 -0.227778
upperneck 35.335 -3.32036 8.99361
head 14.5125 -0.222809 3.23079
rclavicle 2.38542e-015 3.18055e-014
rhumerus -42.1561 9.9104 -101.346
rradius 23.8293
rwrist 11.7643
rhand 18.2175 -34.0764
rfingers 7.12502
rthumb 42.8711 301.632
lclavicle 2.38542e-015 3.18055e-014
lhumerus -40.1504 -1.88733 92.7837
lradius 18.8866
lwrist 2.25959
lhand -18.3521 -1.79908
lfingers 7.12502
lthumb 7.93055 28.0321
rfemur -0.288781 23.9749 26.3548
rtibia 0.669846
rfoot -11.9901 -22.946
rtoes 1.70411
lfemur 9.72105 -46.2786 -17.9374
ltibia -4.88079
lfoot -26.3308 54.6973
ltoes 15.9113
881
root -0.687541 17.5089 7.74609 7.552 -1.02206 -7.02194
lowerback 2.09567 1.32782 6.47693
upperback -12.9408 2.53978 0.461527
thorax -15.2776 0.451612 -3.46402
lowerneck -12.8341 -0.0597122 -0.242202
upperneck 35.2838 -3.29639 9.01958
head 14.4729 -0.213552 3.24449
rclavicle -2.06736e-014 7.95139e-016
rhumerus -42.1495 9.62702 -101.07
rradius 23.7014
rwrist 12.0927
rhand 18.241 -34.0925
rfingers 7.12502
rthumb 42.893 301.624
lclavicle -2.06736e-014 7.95139e-016
lhumerus -39.5105 -0.12176 91.5677
lradius 17.5811
lwrist 0.273681
lhand -18.6183 -2.30839
lfingers 7.12502
lthumb 7.67356 27.5324
rfemur -0.288635 23.97 26.2772
rtibia 0.635596
rfoot -11.9185 -22.9426
rtoes 1.74478
lfemur 9.83161 -46.5349 -18.1091
ltibia -4.89445
lfoot -26.6832 54.8849
ltoes 16.1935
882
root -0.685511 17.508 7.74796 7.61961 -1.00968 -6.99651
lowerback 2.01247 1.30572 6.42729
upperback -12.9484 2.49951 0.476841
thorax -15.2389 0.441406 -3.4107
lowerneck -12.7541 -0.0445967 -0.356863
upperneck 35.1936 -3.25688 9.09419
head 14.4119 -0.205975 3.29663
rclavicle -3.97569e-015 1.82882e-014
rhumerus -42.1847 9.38595 -100.822
rradius 23.6435
rwrist 12.1969
rhand 18.0007 -34.0335
rfingers 7.12502
rthumb 42.6683 301.604
lclavicle -3.97569e-015 1.82882e-014
lhumerus -39.2915 1.2458 90.5653
lradius 17.0232
lwrist -1.47364
lhand -18.7287 -2.67071
lfingers 7.12502
lthumb 7.56703 27.1739
rfemur -0.353958 24.015 26.2145
rtibia 0.621423
rfoot -11.8574 -22.9994
rtoes 1.59826
lfemur 9.78676 -46.7183 -18.1363
ltibia -4.87942
lfoot -26.7768 55.0455
ltoes 16.1216
883
root -0.68359 17.5075 7.74963 7.68193 -0.974822 -7.04176
lowerback 1.95458 1.27468 6.44346
upperback -12.9565 2.45817 0.510683
thorax -15.2176 0.42345 -3.37399
lowerneck -12.7233 -0.0690725 -0.443604
upperneck 35.1413 -3.28025 9.13666
head 14.3838 -0.224582 3.32304
rclavicle 2.10712e-014 -8.34896e-015
rhumerus -42.2291 9.13715 -100.568
rradius 23.6168
rwrist 12.3292
rhand 17.82 -34.0636
rfingers 7.12502
rthumb 42.4992 301.516
lclavicle 2.10712e-014 -8.34896e-015
lhumerus -39.1509 2.43336 89.6689
lradius 16.6132
lwrist -3.12397
lhand -18.8385 -2.75357
lfingers 7.12502
lthumb 7.46107 27.0948
rfemur -0.411261 24.063 26.2432
rtibia 0.623378
rfoot -11.8732 -23.0567
rtoes 1.42885
lfemur 9.75278 -46.8306 -18.0643
ltibia -4.91763
lfoot -26.7635 55.1758
ltoes 15.9621
884
root -0.681179 17.508 7.75227 7.69307 -0.935973 -7.10616
lowerback 1.94613 1.23515 6.48871
upperback -12.9474 2.41206 0.549873
thorax -15.2074 0.399853 -3.34826
lowerneck -12.7736 -0.106477 -0.525432
upperneck 35.1256 -3.30377 9.10523
head 14.3893 -0.250154 3.32043
rclavicle 3.77691e-015 -1.15295e-014
rhumerus -42.2501 8.92004 -100.317
rradius 23.5994
rwrist 12.5348
rhand 17.8362 -34.1672
rfingers 7.12502
rthumb 42.5142 301.417
lclavicle 3.77691e-015 -1.15295e-014
lhumerus -39.0596 3.57468 88.8034
lradius 16.3098
lwrist -4.67299
lhand -19.0324 -2.84041
lfingers 7.12502
lthumb 7.2739 27.0146
rfemur -0.395879 24.0862 26.319
rtibia 0.606241
rfoot -11.9055 -23.0997
rtoes 1.44773
lfemur 9.83901 -46.9624 -18.0503
ltibia -4.99272
lfoot -26.787 55.2975
ltoes 15.9258
885
root -0.678495 17.5081 7.75493 7.70968 -0.892964 -7.12609
lowerback 1.92495 1.20392 6.50149
upperback -12.9293 2.36954 0.564395
thorax -15.1761 0.380876 -3.33216
lowerneck -12.7203 -0.144887 -0.386524
upperneck 35.0127 -3.32922 8.9297
head 14.3205 -0.270268 3.21103
rclavicle 9.14409e-015 7.95139e-016
rhumerus -42.2372 8.67895 -100.064
rradius 23.6277
rwrist 12.7195
rhand 17.7651 -34.3737
rfingers 7.12502
rthumb 42.4478 301.188
lclavicle 9.14409e-015 7.95139e-016
lhumerus -38.9337 4.74482 87.9149
lradius 15.9926
lwrist -6.19265
lhand -19.1822 -3.06198
lfingers 7.12502
lthumb 7.12927 26.7979
rfemur -0.380512 24.1343 26.3414
rtibia 0.575882
rfoot -11.938 -23.1775
rtoes 1.77659
lfemur 9.93275 -47.1693 -18.1028
ltibia -5.05619
lfoot -27.0197 55.4229
ltoes 16.1212
